# AST/ASF file generated using VICON BodyLanguage
# -----------------------------------------------
:version 1.10
:name VICON
:units
  mass 1.0
  length 0.45
  angle deg
:documentation
   .ast/.asf automatically generated from VICON data using
   VICON BodyBuilder and BodyLanguage model FoxedUp or BRILLIANT.MOD
:root
   order TX TY TZ RX RY RZ
   axis XYZ
   position 0 0 0  
   orientation 0 0 0 
:bonedata
  begin
     id 1 
     name lhipjoint
     direction 0.560651 -0.75055 0.34978 
     length 2.44936 
     axis 0 0 0  XYZ
  end
  begin
     id 2 
     name lfemur
     direction 0.34202 -0.939693 0  
     length 7.42139  
     axis 0 0 20  XYZ
    dof rx ry rz
    limits (-160.0 20.0)
           (-70.0 70.0)
           (-60.0 70.0)
  end
  begin
     id 3 
     name ltibia
     direction 0.34202 -0.939693 0   
     length 7.75674   
     axis 0 0 20   XYZ
    dof rx
    limits (-10.0 170.0)
  end
  begin
     id 4 
     name lfoot
     direction 0.0925879 -0.254383 0.962661   
     length 2.38688   
     axis -90 7.62852e-016 20   XYZ
    dof rx rz
    limits (-45.0 90.0)
           (-70.0 20.0)
  end
  begin
     id 5 
     name ltoes
     direction 1.53567e-011 -4.21973e-011 1   
     length 1.19228   
     axis -90 7.62852e-016 20   XYZ
    dof rx
    limits (-90.0 20.0)
  end
  begin
     id 6 
     name rhipjoint
     direction -0.540087 -0.762838 0.355506   
     length 2.4099  
     axis 0 0 0  XYZ 
  end
  begin
     id 7 
     name rfemur
     direction -0.34202 -0.939693 0   
     length 7.70794   
     axis 0 0 -20   XYZ
    dof rx ry rz
    limits (-160.0 20.0)
           (-70.0 70.0)
           (-70.0 60.0)
  end
  begin
     id 8 
     name rtibia
     direction -0.34202 -0.939693 0   
     length 7.66106   
     axis 0 0 -20   XYZ
    dof rx
    limits (-10.0 170.0)
 end
 begin
     id 9 
     name rfoot
     direction -0.0830975 -0.228308 0.970036   
     length 2.4989  
     axis -90 -7.62852e-016 -20   XYZ
    dof rx rz
    limits (-45.0 90.0)
           (-20.0 70.0)
  end
  begin
     id 10 
     name rtoes
     direction -1.53517e-011 -4.21842e-011 1   
     length 1.2498   
     axis -90 -7.62852e-016 -20   XYZ
    dof rx
    limits (-90.0 20.0)
  end
  begin
     id 11 
     name lowerback
     direction 0.0266356 0.99402 -0.105896   
     length 2.1545   
     axis 0 0 0   XYZ
    dof rx ry rz
    limits (-20.0 45.0)
           (-30.0 30.0)
           (-30.0 30.0)
  end
  begin
     id 12 
     name upperback
     direction 0.0130547 0.999192 0.0380027   
     length 2.1434   
     axis 0 0 0   XYZ
    dof rx ry rz
    limits (-20.0 45.0)
           (-30.0 30.0)
           (-30.0 30.0)
  end
  begin
     id 13 
     name thorax
     direction 0.000590299 0.996288 0.0860764   
     length 2.19049   
     axis 0 0 0   XYZ
    dof rx ry rz
    limits (-20.0 45.0)
           (-30.0 30.0)
           (-30.0 30.0)
  end
  begin
     id 14 
     name lowerneck
     direction -0.0432125 0.978219 0.203028   
     length 1.62441   
     axis 0 0 0   XYZ
    dof rx ry rz
    limits (-20.0 45.0)
           (-30.0 30.0)
           (-30.0 30.0)
  end
  begin
     id 15 
     name upperneck
     direction -0.0192309 0.991699 -0.127138   
     length 1.66666   
     axis 0 0 0   XYZ
    dof rx ry rz
    limits (-20.0 45.0)
           (-30.0 30.0)
           (-30.0 30.0)
  end
  begin
     id 16
     name head
     direction -0.00434499 0.997882 -0.0649107  
     length 1.67142  
     axis 0 0 0   XYZ
    dof rx ry rz
    limits (-20.0 45.0)
           (-30.0 30.0)
           (-30.0 30.0)
  end
  begin
     id 17 
     name lclavicle
     direction 0.970351 0.240904 -0.0196058  
     length 4.04862  
     axis 0 0 0   XYZ
    dof ry rz
    limits (-20.0 10.0)
           (0.0 20.0)
  end
  begin
     id 18 
     name lhumerus
     direction 1 -4.4896e-011 -1.40911e-018   
     length 5.58345   
     axis 180 -30 -90   XYZ
    dof rx ry rz
    limits (-60.0 90.0)
           (-90.0 90.0)
           (-90.0 90.0)
  end
  begin
     id 19
     name lradius
     direction 1 -4.48968e-011 5.88912e-028   
     length 3.71087   
     axis 180 -30 -90   XYZ
    dof rx
    limits (-10.0 170.0)
  end
  begin
     id 20
     name lwrist
     direction 1 -4.48955e-011 -8.83775e-028   
     length 1.85544   
     axis 5.52448e-016 90 90   XYZ
    dof ry
    limits (-180.0 0.0)
 end
  begin
     id 21 
     name lhand
     direction 1 -4.49035e-011 -1.76755e-027   
     length 0.562322   
     axis 1.12785e-015 90 90   XYZ
    dof rx rz
    limits (-90.0 90.0)
           (-45.0 45.0)
  end
  begin
     id 22 
     name lfingers
     direction 1 -4.48824e-011 -3.5351e-027   
     length 0.453359   
     axis 2.2557e-015 90 90   XYZ
    dof rx
    limits (0.0 90.0)
  end
  begin
     id 23
     name lthumb
     direction 0.707107 -6.34888e-011 0.707107   
     length 0.650935   
     axis -90 45 2.85299e-015   XYZ
    dof rx rz
    limits (-45.0 45.0)
           (-45.0 45.0)
  end
  begin
     id 24 
     name rclavicle
     direction -0.96165 0.268562 -0.0557131   
     length 4.05446  
     axis 0 0 0   XYZ 
    dof ry rz
    limits (-10.0 20.0)
           (-20.0 0.0)
  end
  begin
     id 25 
     name rhumerus
     direction -1 -4.48957e-011 -3.36329e-027  
     length 5.20357   
     axis 180 30 90   XYZ
    dof rx ry rz
    limits (-90.0 60.0)
           (-90.0 90.0)
           (-90.0 90.0)
  end
  begin
     id 26 
     name rradius
     direction -1 -4.48974e-011 4.51441e-027   
     length 3.64937   
     axis 180 30 90   XYZ
    dof rx
    limits (-10.0 170.0)
  end
  begin
     id 27 
     name rwrist
     direction -1 -4.4896e-011 -8.83775e-028   
     length 1.82468   
     axis 5.52448e-016 -90 -90   XYZ
    dof ry
    limits (-180.0 0.0)
  end
  begin
     id 28
     name rhand
     direction -1 -4.48996e-011 -1.76755e-027   
     length 0.617996   
     axis 1.12785e-015 -90 -90   XYZ
    dof rx rz
    limits (-90.0 90.0)
           (-45.0 45.0)
  end
  begin
     id 29
     name rfingers
     direction -1 -4.48957e-011 -3.5351e-027   
     length 0.498244   
     axis 2.2557e-015 -90 -90   XYZ
    dof rx
    limits (0.0 90.0)
  end
  begin
     id 30
     name rthumb
     direction -0.707107 -6.34931e-011 0.707107   
     length 0.715382   
     axis -90 -45 -2.85299e-015   XYZ
    dof rx rz
    limits (-45.0 45.0)
           (-45.0 45.0)
  end
:hierarchy
  begin
    root lhipjoint rhipjoint lowerback
    lhipjoint lfemur
    lfemur ltibia
    ltibia lfoot
    lfoot ltoes
    rhipjoint rfemur
    rfemur rtibia
    rtibia rfoot
    rfoot rtoes
    lowerback upperback
    upperback thorax
    thorax lowerneck lclavicle rclavicle
    lowerneck upperneck
    upperneck head
    lclavicle lhumerus
    lhumerus lradius
    lradius lwrist
    lwrist lhand lthumb
    lhand lfingers
    rclavicle rhumerus
    rhumerus rradius
    rradius rwrist
    rwrist rhand rthumb
    rhand rfingers
  end

#!OML:ASF H:\ManfredETheater\Project 1\Capture day 2\Session 1\Male1.ASF
:FULLY-SPECIFIED
:DEGREES
189
root 1.29711 17.8636 27.0388 8.8781 2.7913 -4.58906
lowerback 3.5475 0.0184511 3.73901
upperback -2.72403 0.406294 3.74387
thorax -4.81959 0.145248 1.75383
lowerneck -23.1948 -0.455142 -0.918001
upperneck 16.5692 0.296714 -2.78829
head 9.00931 -0.245892 -0.771725
rclavicle -4.07509e-015 -1.90833e-014
rhumerus -32.7514 -2.68934 -84.7092
rradius 36.1906
rwrist 7.75683
rhand -28.2705 -10.0039
rfingers 7.12502
rthumb -1.64718 -39.9773
lclavicle -4.07509e-015 -1.90833e-014
lhumerus -39.4034 3.00676 89.626
lradius 40.5491
lwrist -7.54321
lhand -7.64695 8.83475
lfingers 7.12502
lthumb 18.2485 37.9988
rfemur -9.97769 0.415276 28.5389
rtibia 28.5622
rfoot -20.1331 -7.34109
rtoes 7.24782
lfemur -12.45 -2.81313 -18.0202
ltibia 32.4513
lfoot -20.2194 0.70508
ltoes 8.78238
190
root 1.30208 17.865 27.0608 8.97385 2.88103 -4.45667
lowerback 3.5453 0.00248251 3.66931
upperback -2.69498 0.377694 3.70857
thorax -4.78762 0.133153 1.75785
lowerneck -23.2911 -0.488815 -0.930101
upperneck 16.5683 0.265679 -2.82932
head 9.02535 -0.266651 -0.788898
rclavicle 7.60351e-015 -4.45278e-014
rhumerus -32.6341 -2.71383 -84.7147
rradius 36.1502
rwrist 7.65276
rhand -28.2388 -10.0141
rfingers 7.12502
rthumb -1.61656 -39.9878
lclavicle 7.60351e-015 -4.45278e-014
lhumerus -39.3326 3.00686 89.5697
lradius 40.3881
lwrist -7.64388
lhand -7.60391 8.85397
lfingers 7.12502
lthumb 18.2899 38.0141
rfemur -10.0478 0.456719 28.4084
rtibia 28.631
rfoot -20.1043 -7.53125
rtoes 7.24207
lfemur -12.5166 -2.64134 -18.1541
ltibia 32.4657
lfoot -20.1478 0.435216
ltoes 8.8396
191
root 1.30847 17.8667 27.0804 9.05049 2.87702 -4.41683
lowerback 3.65279 0.00975935 3.68553
upperback -2.72073 0.396152 3.69649
thorax -4.8758 0.14065 1.73553
lowerneck -23.2719 -0.512654 -0.967553
upperneck 16.5565 0.249185 -2.84886
head 9.01795 -0.278823 -0.79174
rclavicle -4.22417e-015 7.95139e-016
rhumerus -32.5851 -2.82414 -84.6938
rradius 36.0835
rwrist 7.63512
rhand -28.2832 -10.0358
rfingers 7.12502
rthumb -1.65944 -40.0091
lclavicle -4.22417e-015 7.95139e-016
lhumerus -39.3296 3.04231 89.5078
lradius 40.1843
lwrist -7.74879
lhand -7.53535 8.89331
lfingers 7.12502
lthumb 18.3559 38.0472
rfemur -10.1081 0.538891 28.3535
rtibia 28.698
rfoot -20.0399 -7.65975
rtoes 7.03086
lfemur -12.5524 -2.5334 -18.2125
ltibia 32.4728
lfoot -20.0572 0.335614
ltoes 8.69458
192
root 1.31208 17.8693 27.1031 9.11358 2.94574 -4.38469
lowerback 3.69888 -0.0284926 3.66328
upperback -2.73143 0.347604 3.70409
thorax -4.91328 0.117091 1.76005
lowerneck -23.6945 -0.528226 -1.85028
upperneck 17.0452 0.333327 -1.87358
head 9.25785 -0.193084 -0.303065
rclavicle 1.93815e-015 -9.54166e-015
rhumerus -32.5479 -2.87774 -84.7149
rradius 36.0314
rwrist 7.63784
rhand -28.2597 -10.1157
rfingers 7.12502
rthumb -1.63677 -40.0892
lclavicle 1.93815e-015 -9.54166e-015
lhumerus -39.3456 3.11689 89.4138
lradius 40.0262
lwrist -7.82658
lhand -7.55073 8.85828
lfingers 7.12502
lthumb 18.3411 38.0136
rfemur -10.1384 0.646871 28.3337
rtibia 28.7465
rfoot -19.9975 -7.86132
rtoes 6.97317
lfemur -12.5675 -2.60618 -18.2431
ltibia 32.4741
lfoot -19.9929 0.311321
ltoes 8.54347
193
root 1.31591 17.8719 27.1241 9.18674 2.9606 -4.30134
lowerback 3.72185 -0.0177655 3.60923
upperback -2.68279 0.35694 3.68927
thorax -4.87541 0.12381 1.77358
lowerneck -23.2186 -0.499575 -0.94805
upperneck 16.4042 0.281106 -2.96811
head 8.95696 -0.274131 -0.830141
rclavicle 4.67144e-015 3.02153e-014
rhumerus -32.3802 -2.89183 -84.7156
rradius 35.9697
rwrist 7.46457
rhand -28.5303 -10.2423
rfingers 7.12502
rthumb -1.8981 -40.2136
lclavicle 4.67144e-015 3.02153e-014
lhumerus -39.1998 3.14735 89.3593
lradius 39.8116
lwrist -8.00944
lhand -7.58066 8.79539
lfingers 7.12502
lthumb 18.3123 37.9534
rfemur -10.173 0.723538 28.2456
rtibia 28.781
rfoot -19.9463 -8.0005
rtoes 6.96676
lfemur -12.5868 -2.74318 -18.3481
ltibia 32.4826
lfoot -19.9423 0.419889
ltoes 8.24838
194
root 1.32076 17.8745 27.1446 9.26021 3.01131 -4.31045
lowerback 3.82966 -0.0157425 3.67582
upperback -2.70459 0.372125 3.69735
thorax -4.95978 0.128427 1.74432
lowerneck -23.1926 -0.519136 -0.99358
upperneck 16.357 0.2745 -2.9998
head 8.93633 -0.283052 -0.834132
rclavicle 1.09332e-014 -5.1684e-014
rhumerus -32.3497 -3.02622 -84.677
rradius 35.932
rwrist 7.41885
rhand -28.6276 -10.2371
rfingers 7.12502
rthumb -1.99202 -40.2075
lclavicle 1.09332e-014 -5.1684e-014
lhumerus -39.1607 3.09562 89.3273
lradius 39.6605
lwrist -8.08688
lhand -7.43698 8.8212
lfingers 7.12502
lthumb 18.4505 37.9662
rfemur -10.2161 0.782865 28.2584
rtibia 28.8213
rfoot -19.9489 -8.09847
rtoes 7.01043
lfemur -12.626 -2.80966 -18.3356
ltibia 32.4921
lfoot -19.8577 0.378855
ltoes 8.25885
195
root 1.32558 17.8749 27.1657 9.29708 3.06363 -4.27885
lowerback 3.91167 -0.0275449 3.69405
upperback -2.71626 0.362824 3.68491
thorax -5.01863 0.122384 1.72246
lowerneck -23.0865 -0.521719 -0.978176
upperneck 16.2676 0.269753 -3.04097
head 8.88739 -0.287022 -0.850182
rclavicle -4.96962e-015 -4.37326e-014
rhumerus -32.3226 -3.0722 -84.6957
rradius 35.8617
rwrist 7.34978
rhand -28.7202 -10.1078
rfingers 7.12502
rthumb -2.08146 -40.0774
lclavicle -4.96962e-015 -4.37326e-014
lhumerus -39.1414 3.11959 89.2384
lradius 39.4917
lwrist -8.2115
lhand -7.3756 8.80934
lfingers 7.12502
lthumb 18.5095 37.9487
rfemur -10.2114 0.830761 28.2325
rtibia 28.8739
rfoot -19.9423 -8.23692
rtoes 7.1095
lfemur -12.615 -2.73071 -18.3608
ltibia 32.5066
lfoot -19.8141 0.211759
ltoes 8.20672
